{"asset":{"version":"2.0","generator":"Blockbench 5.1.3 glTF exporter"},"scenes":[{"nodes":[0,1,2],"name":"blockbench_export"}],"scene":0,"nodes":[{"name":"leggings","mesh":0},{"name":"Helmet","mesh":1},{"name":"base","mesh":2}],"bufferViews":[{"buffer":0,"byteOffset":0,"byteLength":1296,"target":34962,"byteStride":12},{"buffer":0,"byteOffset":1296,"byteLength":1296,"target":34962,"byteStride":12},{"buffer":0,"byteOffset":2592,"byteLength":864,"target":34962,"byteStride":8},{"buffer":0,"byteOffset":3456,"byteLength":216,"target":34963},{"buffer":0,"byteOffset":3672,"byteLength":3024,"target":34962,"byteStride":12},{"buffer":0,"byteOffset":6696,"byteLength":3024,"target":34962,"byteStride":12},{"buffer":0,"byteOffset":9720,"byteLength":2016,"target":34962,"byteStride":8},{"buffer":0,"byteOffset":11736,"byteLength":504,"target":34963},{"buffer":0,"byteOffset":12240,"byteLength":4320,"target":34962,"byteStride":12},{"buffer":0,"byteOffset":16560,"byteLength":4320,"target":34962,"byteStride":12},{"buffer":0,"byteOffset":20880,"byteLength":2880,"target":34962,"byteStride":8},{"buffer":0,"byteOffset":23760,"byteLength":720,"target":34963}],"buffers":[{"byteLength":24480,"uri":"data:application/octet-stream;base64,"}],"accessors":[{"bufferView":0,"componentType":5126,"count":108,"max":[0.28187501430511475,1.5318750143051147,0.15687499940395355],"min":[-0.28187501430511475,-0.03125,-0.15687499940395355],"type":"VEC3"},{"bufferView":1,"componentType":5126,"count":108,"max":[1,1,1],"min":[-1,-1,-1],"type":"VEC3"},{"bufferView":2,"componentType":5126,"count":108,"max":[0.625,1],"min":[0,0.5],"type":"VEC2"},{"bufferView":3,"componentType":5123,"count":108,"max":[107],"min":[0],"type":"SCALAR"},{"bufferView":4,"componentType":5126,"count":252,"max":[0.5625,2.09375,0.34375],"min":[-0.5625,-0.0625,-0.34375],"type":"VEC3"},{"bufferView":5,"componentType":5126,"count":252,"max":[1,1,1],"min":[-1,-1,-1],"type":"VEC3"},{"bufferView":6,"componentType":5126,"count":252,"max":[1,1],"min":[0,0],"type":"VEC2"},{"bufferView":7,"componentType":5123,"count":252,"max":[251],"min":[0],"type":"SCALAR"},{"bufferView":8,"componentType":5126,"count":360,"max":[0.4375,1.9375,0.375],"min":[-0.4375,0,-0.375],"type":"VEC3"},{"bufferView":9,"componentType":5126,"count":360,"max":[1,1,1],"min":[-1,-1,-1],"type":"VEC3"},{"bufferView":10,"componentType":5126,"count":360,"max":[0.875,0.8125],"min":[0,0],"type":"VEC2"},{"bufferView":11,"componentType":5123,"count":360,"max":[359],"min":[0],"type":"SCALAR"}],"materials":[{"pbrMetallicRoughness":{"metallicFactor":0,"roughnessFactor":1,"baseColorTexture":{"index":0}},"alphaMode":"MASK","alphaCutoff":0.05,"doubleSided":true},{"pbrMetallicRoughness":{"metallicFactor":0,"roughnessFactor":1,"baseColorTexture":{"index":1}},"alphaMode":"MASK","alphaCutoff":0.05,"doubleSided":true},{"pbrMetallicRoughness":{"metallicFactor":0,"roughnessFactor":1,"baseColorTexture":{"index":2}},"alphaMode":"MASK","alphaCutoff":0.05,"doubleSided":true}],"textures":[{"sampler":0,"source":0},{"sampler":1,"source":1},{"sampler":2,"source":2,"name":"texture"}],"samplers":[{"magFilter":9728,"minFilter":9728,"wrapS":33071,"wrapT":33071},{"magFilter":9728,"minFilter":9728,"wrapS":33071,"wrapT":33071},{"magFilter":9728,"minFilter":9728,"wrapS":33071,"wrapT":33071}],"images":[{"mimeType":"image/png","uri":"data:image/png;base64,"},{"mimeType":"image/png","uri":"data:image/png;base64,"},{"mimeType":"image/png","uri":"data:image/png;base64,"}],"meshes":[{"primitives":[{"mode":4,"attributes":{"POSITION":0,"NORMAL":1,"TEXCOORD_0":2},"indices":3,"material":0}]},{"primitives":[{"mode":4,"attributes":{"POSITION":4,"NORMAL":5,"TEXCOORD_0":6},"indices":7,"material":1}]},{"primitives":[{"mode":4,"attributes":{"POSITION":8,"NORMAL":9,"TEXCOORD_0":10},"indices":11,"material":2}]}]}